HIERARCHY
ROOT Hips
{
	OFFSET -3.958830 18.904000 13.208200
	CHANNELS 6 Xposition Yposition Zposition Zrotation Yrotation Xrotation 
	JOINT LHipJoint
	{
		OFFSET 0.000000 0.000000 0.000000
		CHANNELS 3 Zrotation Yrotation Xrotation
		JOINT LeftUpLeg
		{
			OFFSET 1.800000 -1.400000 0.085000
			CHANNELS 3 Zrotation Yrotation Xrotation
			JOINT LeftLeg
			{
				OFFSET 2.215000 -6.000000 0.000000
				CHANNELS 3 Zrotation Yrotation Xrotation
				JOINT LeftFoot
				{
					OFFSET 2.500000 -6.900000 0.000000
					CHANNELS 3 Zrotation Yrotation Xrotation
					JOINT LeftToeBase
					{
						OFFSET 0.200000 -0.500000 1.950000
						CHANNELS 3 Zrotation Yrotation Xrotation
						End Site
						{
							OFFSET 0.000000 0.000000 0.000000
						}
					}
				}
			}
		}
	}
	JOINT RHipJoint
	{
		OFFSET 0.000000 0.000000 0.000000
		CHANNELS 3 Zrotation Yrotation Xrotation
		JOINT RightUpLeg
		{
			OFFSET -1.800000 -1.400000 0.085000
			CHANNELS 3 Zrotation Yrotation Xrotation
			JOINT RightLeg
			{
				OFFSET -2.215000 -6.000000 0.000000
				CHANNELS 3 Zrotation Yrotation Xrotation
				JOINT RightFoot
				{
					OFFSET -2.500000 -6.900000 0.000000
					CHANNELS 3 Zrotation Yrotation Xrotation
					JOINT RightToeBase
					{
						OFFSET -0.200000 -0.500000 1.950000
						CHANNELS 3 Zrotation Yrotation Xrotation
						End Site
						{
							OFFSET 0.000000 0.000000 0.000000
						}
					}
				}
			}
		}
	}
	JOINT LowerBack
	{
		OFFSET 0.000000 0.000000 0.000000
		CHANNELS 3 Zrotation Yrotation Xrotation
		JOINT Spine
		{
			OFFSET -0.087000 1.940000 -0.288900
			CHANNELS 3 Zrotation Yrotation Xrotation
			JOINT Spine1
			{
				OFFSET 0.000000 1.950000 0.060000
				CHANNELS 3 Zrotation Yrotation Xrotation
				JOINT Neck
				{
					OFFSET 0.000000 0.000000 0.000000
					CHANNELS 3 Zrotation Yrotation Xrotation
					JOINT Neck1
					{
						OFFSET 0.000000 1.600000 0.340000
						CHANNELS 3 Zrotation Yrotation Xrotation
						JOINT Head
						{
							OFFSET 0.000000 1.667000 -0.240000
							CHANNELS 3 Zrotation Yrotation Xrotation
							End Site
							{
								OFFSET 0.000000 0.000000 0.000000
							}
						}
					}
				}
				JOINT LeftShoulder
				{
					OFFSET 0.000000 0.000000 0.000000
					CHANNELS 3 Zrotation Yrotation Xrotation
					JOINT LeftArm
					{
						OFFSET 2.700000 1.550000 -0.730000
						CHANNELS 3 Zrotation Yrotation Xrotation
						JOINT LeftForeArm
						{
							OFFSET 5.450000 0.000000 0.000000
							CHANNELS 3 Zrotation Yrotation Xrotation
							JOINT LeftHand
							{
								OFFSET 3.450000 0.000000 0.000000
								CHANNELS 3 Zrotation Yrotation Xrotation
								JOINT LeftHandIndex1
								{
									OFFSET 0.750000 0.000000 0.000000
									CHANNELS 3 Zrotation Yrotation Xrotation
									End Site
									{
										OFFSET 0.000000 0.000000 0.000000
									}
								}
							}
						}
					}
				}
				JOINT RightShoulder
				{
					OFFSET 0.000000 0.000000 0.000000
					CHANNELS 3 Zrotation Yrotation Xrotation
					JOINT RightArm
					{
						OFFSET -2.700000 1.550000 -0.730000
						CHANNELS 3 Zrotation Yrotation Xrotation
						JOINT RightForeArm
						{
							OFFSET -5.450000 0.000000 0.000000
							CHANNELS 3 Zrotation Yrotation Xrotation
							JOINT RightHand
							{
								OFFSET -3.450000 0.000000 0.000000
								CHANNELS 3 Zrotation Yrotation Xrotation
								JOINT RightHandIndex1
								{
									OFFSET -0.750000 0.000000 0.000000
									CHANNELS 3 Zrotation Yrotation Xrotation
									End Site
									{
										OFFSET 0.000000 0.000000 0.000000
									}
								}
							}
						}
					}
				}
			}
		}
	}
}
MOTION
Frames: 13
Frame Time: 0.016667
0.821160 15.676650 4.251460 -2.195643 18.701555 7.079971 -15.219356 12.631443 5.078017 -9.693763 -11.777658 -30.158168 11.643598 1.229466 47.169347 0.698537 7.031090 2.215157 -0.201820 -0.459080 -0.186230 17.965474 -10.862801 2.126887 -31.283204 6.527048 1.460236 -3.182551 -4.134541 11.193742 -0.122118 -4.854206 2.742636 -0.256190 0.225210 0.057050 -3.742272 -2.218833 -8.867150 27.213154 5.724547 13.112335 -18.978767 7.862716 -21.432944 14.186479 -13.827558 -10.836935 -25.531768 -2.948144 36.561614 -11.315420 -9.221360 4.495260 -8.807561 24.457908 -7.348136 -50.671238 29.631355 -14.490709 8.124050 -16.421581 -1.121201 -3.993917 2.659971 0.035860 0.096430 -0.233110 0.048610 -20.857974 5.132143 6.662408 -37.474906 -1.038076 4.742145 -48.951201 36.693874 -8.663145 3.300157 -1.977692 -0.102500 0.037670 0.159580 0.016980 
0.875680 15.692900 4.289470 -1.690520 18.563854 7.688912 -15.194777 12.675711 5.066203 -10.583738 -11.652020 -29.157053 11.367011 1.130265 45.575778 0.658121 6.731113 2.329658 -0.216220 -0.466970 -0.207150 17.994988 -10.906280 2.053178 -31.356696 6.337978 0.519638 -3.654253 -4.039988 11.898887 -0.095472 -4.774214 2.773846 -0.261680 0.246810 0.053600 -3.822334 -2.277645 -8.772467 27.864266 5.323958 12.075971 -19.512647 6.984762 -21.446817 13.866150 -14.160428 -10.918460 -26.333662 -2.306033 36.140642 -11.207390 -8.355180 5.127970 -8.160993 24.073623 -6.820590 -49.993591 31.192832 -14.401538 7.195391 -13.841566 -0.956410 -4.031894 2.621355 0.022890 0.110770 -0.245150 0.056270 -20.789261 5.115073 6.372295 -39.617479 -0.720073 4.548431 -51.521407 33.539932 -8.240318 3.297279 -1.905386 -0.107070 0.040050 0.162880 0.025320 
0.935170 15.705840 4.314110 -1.153369 18.800546 7.640969 -15.133084 12.635002 5.021805 -11.834334 -11.373802 -27.464178 11.563261 0.837600 44.044318 0.626000 6.447739 2.433782 -0.212480 -0.459350 -0.208190 18.063117 -11.046390 1.988456 -31.570554 6.075117 0.017914 -4.065354 -4.099211 13.022138 -0.092788 -4.787724 2.763604 -0.260620 0.246990 0.054820 -4.023831 -2.012250 -8.673745 28.692818 5.276538 11.075904 -20.469403 6.633540 -20.658682 13.528176 -13.905004 -10.795823 -26.043156 -2.210350 36.894755 -11.086150 -8.200720 5.500510 -8.577321 22.678304 -6.309577 -48.645367 31.740563 -13.940465 6.725437 -11.323738 -0.820980 -4.051929 2.603935 0.018500 0.112290 -0.243060 0.060590 -20.061998 5.288785 6.353298 -41.361307 -1.009686 4.457772 -54.108732 30.072129 -7.604866 3.288653 -1.824015 -0.101670 0.036130 0.157480 0.029150 
0.987220 15.713320 4.330320 -0.157606 19.429832 7.477950 -15.050881 12.469784 4.995265 -13.539216 -11.119384 -25.523338 12.017391 0.466658 42.634519 0.597154 6.201071 2.522702 -0.205520 -0.449430 -0.204540 18.164030 -11.227105 1.935099 -32.077678 5.889358 -0.133918 -4.495821 -4.232694 14.231857 -0.107611 -4.879653 2.719720 -0.255380 0.242600 0.055900 -4.304707 -1.499306 -8.600949 29.171982 5.213296 9.923508 -22.404876 6.263481 -19.113934 13.245949 -13.153710 -10.689467 -24.792204 -2.208032 38.213864 -10.637420 -8.263040 5.708140 -9.673318 20.160867 -5.557153 -46.202435 31.699196 -12.937153 6.379547 -8.673345 -0.661744 -4.061137 2.604962 0.021210 0.109770 -0.236700 0.061310 -18.929569 5.961970 6.567156 -42.511142 -1.455195 4.197963 -55.689884 27.004499 -6.856228 3.294514 -1.760305 -0.098370 0.034850 0.154370 0.029000 
1.040930 15.726730 4.355040 0.402200 19.676156 7.403551 -15.012879 12.457239 4.976096 -14.737151 -10.730102 -23.945555 12.413632 0.169069 41.247238 0.574838 5.975706 2.605324 -0.210520 -0.450890 -0.215330 18.207635 -11.361050 1.846044 -32.052605 5.638676 -0.725664 -5.129046 -4.210516 15.622431 -0.099031 -4.877778 2.715558 -0.258760 0.249170 0.056260 -4.437990 -1.302129 -8.516900 29.566701 5.074096 9.017465 -23.285796 5.913887 -18.337064 12.981554 -12.843245 -10.747864 -24.347441 -1.830682 38.893508 -10.126800 -7.979010 6.170620 -9.712782 19.101755 -5.052120 -44.969030 32.566007 -12.599113 5.974980 -7.064193 -0.571628 -4.075520 2.595430 0.017690 0.112200 -0.238390 0.063510 -18.554809 6.183185 6.720404 -43.554118 -1.289502 3.746134 -58.242460 23.613893 -6.164126 3.294852 -1.702313 -0.096400 0.031710 0.157150 0.033720 
1.091790 15.737600 4.362200 0.962350 20.572327 6.825845 -14.944026 12.350212 4.942960 -16.049304 -10.235495 -21.960718 13.136209 -0.231619 39.966713 0.556189 5.791728 2.670095 -0.201240 -0.441740 -0.206550 18.285166 -11.573245 1.772053 -32.003170 5.334765 -0.839005 -5.604254 -4.329261 17.329660 -0.114958 -4.973712 2.673235 -0.255920 0.239290 0.063760 -4.690993 -0.803478 -8.451663 30.069737 5.331575 8.167230 -24.789852 6.115614 -17.006013 12.740622 -11.672935 -10.546291 -22.310842 -2.270354 40.773603 -9.880180 -8.360920 6.499840 -11.322581 16.581912 -4.365815 -42.195578 32.553143 -11.572321 6.247292 -5.580449 -0.462077 -4.075339 2.612497 0.021500 0.109200 -0.227960 0.062450 -16.987914 6.695897 6.959061 -44.577182 -1.928446 3.753377 -60.943089 20.735197 -5.392300 3.286370 -1.632071 -0.088040 0.024700 0.153120 0.032620 
1.137900 15.752270 4.369960 1.391981 21.321061 6.298690 -14.900766 12.335619 4.908776 -16.999655 -9.650102 -20.167666 13.718591 -0.535694 38.640474 0.536315 5.614370 2.733721 -0.200910 -0.440340 -0.211890 18.328421 -11.754653 1.684538 -31.643157 5.028624 -1.207920 -6.180457 -4.350075 19.206812 -0.118370 -5.031123 2.651099 -0.256980 0.237810 0.065740 -4.860705 -0.496945 -8.378491 30.403606 5.388927 7.448094 -25.761675 6.141435 -16.065391 12.495162 -10.895037 -10.450546 -21.047668 -2.390640 42.387077 -9.548900 -8.715370 6.974110 -12.342016 14.890609 -3.798951 -40.265446 32.991852 -10.902925 6.963654 -4.665088 -0.358907 -4.081560 2.623212 0.023280 0.107600 -0.224720 0.063580 -15.789510 7.021167 7.100698 -45.588394 -2.072426 3.795460 -62.950570 18.834191 -4.819858 3.267233 -1.579671 -0.084080 0.021990 0.154590 0.035300 
1.181170 15.767590 4.381500 1.769495 21.892973 5.697648 -14.861947 12.346200 4.847509 -17.663592 -8.937204 -18.339881 14.110240 -0.703092 37.317369 0.517801 5.464292 2.792574 -0.207570 -0.446870 -0.219400 18.365678 -11.925923 1.606961 -31.213100 4.691230 -1.665334 -6.731372 -4.344094 21.086293 -0.115086 -5.105834 2.622367 -0.257740 0.247970 0.070500 -5.010419 -0.215552 -8.289338 30.549505 5.420563 6.850867 -26.284041 6.136373 -15.138225 12.310591 -10.308042 -10.185551 -20.048375 -2.565295 43.551125 -9.607610 -8.908250 7.732730 -13.306258 13.656047 -3.452038 -38.369212 33.096346 -10.110619 7.426498 -3.346477 -0.242925 -4.109486 2.620784 0.011330 0.118950 -0.232110 0.063460 -14.729342 7.004731 7.082061 -46.931957 -2.250582 4.011227 -65.728488 16.792771 -4.165334 3.247077 -1.535172 -0.083110 0.020050 0.160010 0.039800 
1.217340 15.781820 4.397460 1.996225 22.235314 4.982340 -14.820939 12.368880 4.763672 -18.038965 -8.116340 -16.564258 14.384446 -0.762610 35.985554 0.491329 5.324505 2.847220 -0.209830 -0.448750 -0.222560 18.402099 -12.105081 1.540663 -30.650481 4.359094 -2.242029 -7.285925 -4.301727 23.074767 -0.113248 -5.193082 2.589493 -0.252500 0.258460 0.073130 -5.154391 0.087994 -8.192012 30.633769 5.503415 6.433793 -26.681794 6.221367 -14.178698 12.208748 -9.636017 -9.847596 -18.798658 -2.858225 44.410533 -9.642730 -8.978320 8.362030 -14.212118 12.576755 -3.209654 -36.409973 32.908139 -9.223249 7.627602 -1.772703 -0.126425 -4.140217 2.608968 0.000220 0.132000 -0.241510 0.063870 -13.859645 6.787649 6.982643 -48.262217 -2.745178 4.335151 -69.199130 14.498890 -3.293655 3.233835 -1.496153 -0.085940 0.020310 0.163550 0.040990 
1.256140 15.796550 4.416060 2.075523 22.621013 4.296811 -14.795047 12.426432 4.681755 -18.137076 -7.336858 -15.000990 14.493829 -0.750444 34.869589 0.466527 5.216182 2.889463 -0.199700 -0.436750 -0.214370 18.421350 -12.260796 1.477205 -29.799718 3.987521 -2.898973 -7.833829 -4.218012 25.180668 -0.117612 -5.283372 2.554789 -0.239080 0.260800 0.077310 -5.255314 0.300809 -8.093485 30.779945 5.635762 6.276483 -26.786758 6.343847 -13.591101 12.192804 -9.208748 -9.433265 -18.024640 -3.368305 44.742899 -9.948980 -9.131270 8.520100 -14.650935 12.214758 -3.295606 -34.514460 32.109587 -8.444282 7.701937 -0.695105 -0.064956 -4.163691 2.600459 -0.010240 0.141230 -0.246050 0.065340 -13.557974 6.260152 6.806033 -49.666947 -3.644661 4.905473 -72.786186 11.708747 -1.899455 3.232751 -1.468086 -0.084870 0.019790 0.159700 0.040690 
1.288540 15.810390 4.430120 2.285587 23.005107 3.655399 -14.784702 12.478728 4.630056 -18.360031 -6.649618 -13.559156 14.723628 -0.778113 33.951061 0.456786 5.138156 2.918333 -0.186920 -0.421170 -0.204720 18.430032 -12.376338 1.417154 -29.028298 3.653308 -3.687899 -8.257225 -4.175026 27.460750 -0.131784 -5.393284 2.511639 -0.229220 0.254980 0.078280 -5.313432 0.432431 -8.015304 30.882854 5.433726 6.267941 -26.924819 6.294829 -12.673178 12.178998 -9.102261 -9.418575 -17.911001 -3.449855 45.047149 -10.033840 -9.148340 8.408130 -14.731295 11.708365 -3.110619 -33.473632 31.191388 -8.033642 7.510353 0.161148 -0.042054 -4.170784 2.591092 -0.010710 0.139410 -0.241760 0.067200 -13.448626 6.248983 6.808339 -50.497618 -4.246442 4.861080 -75.850441 8.199648 0.004234 3.231961 -1.442546 -0.081180 0.019600 0.152950 0.040040 
1.315780 15.822540 4.440060 2.638339 23.655779 2.994751 -14.772519 12.491320 4.569091 -18.543437 -5.949482 -12.089414 14.740804 -0.708361 33.002857 0.445506 5.056738 2.947152 -0.177230 -0.409150 -0.195470 18.446940 -12.493204 1.369335 -28.343629 3.351850 -4.447408 -8.471144 -4.262351 30.101677 -0.160240 -5.582350 2.438691 -0.222100 0.248080 0.080750 -5.391563 0.624038 -7.939301 30.861885 5.003797 6.148396 -27.322048 6.105101 -11.244154 12.183550 -8.900237 -9.493988 -17.560467 -3.601989 45.189898 -10.077300 -9.138720 8.191490 -14.823202 10.807479 -2.691486 -32.646648 30.147197 -7.751840 7.377154 0.724319 -0.040505 -4.174759 2.592051 -0.009400 0.137550 -0.235830 0.066410 -13.314884 6.449070 6.861976 -50.740136 -5.024852 4.615795 -78.706273 4.862342 2.049045 3.240224 -1.419345 -0.077300 0.018740 0.148730 0.037980 
1.344350 15.838960 4.443950 2.868186 24.458061 2.394058 -14.777698 12.535699 4.522379 -18.608006 -5.367775 -10.919320 14.726108 -0.648730 32.219146 0.436027 4.991070 2.970451 -0.166940 -0.396870 -0.187250 18.447058 -12.557995 1.334725 -27.502403 3.093723 -5.343327 -8.487916 -4.429822 32.992241 -0.199929 -5.805704 2.354134 -0.216230 0.239280 0.081080 -5.427061 0.677153 -7.884119 31.006053 4.470068 6.210966 -27.749561 5.833086 -10.301254 12.181696 -8.830124 -9.587935 -17.569839 -3.687023 45.394055 -10.119090 -9.247200 7.907310 -14.858255 10.132141 -2.365686 -31.710290 29.063770 -7.410091 7.309327 1.299010 -0.029938 -4.173062 2.590648 -0.003420 0.130870 -0.227420 0.067420 -13.195885 6.629895 6.883797 -51.000795 -5.977330 4.605584 -81.099337 2.195677 3.974680 3.247757 -1.398619 -0.074020 0.019740 0.143470 0.036780 
